<svg fill="#40C057" xmlns="http://www.w3.org/2000/svg"  viewBox="0 0 50 50" width="50px" height="50px" fill-rule="evenodd"><path fill-rule="evenodd" d="M 13 10 C 6.21875 10.976563 1 16.84375 1 23.929688 C 1 27.644531 2.4375 31.027344 4.78125 33.546875 C 9.441406 31.273438 13 26.429688 13 20.910156 Z M 17 10 L 17 20.910156 C 17 26.539063 20.199219 31.566406 24.996094 33.777344 C 24.996094 33.777344 25 33.773438 25 33.773438 C 29.660156 31.5 33 26.429688 33 20.910156 L 33 10 C 29.882813 10.449219 27.101563 11.941406 25 14.101563 C 22.898438 11.941406 20.117188 10.449219 17 10 Z M 37 10 L 37 20.910156 C 37 26.539063 40.199219 31.566406 44.996094 33.777344 C 47.472656 31.238281 49 27.761719 49 23.929688 C 49 16.84375 43.78125 10.976563 37 10 Z M 15 29.253906 C 13.542969 32.089844 10.949219 34.542969 8.234375 36.25 C 10.238281 37.363281 12.546875 38 15 38 C 17.355469 38 19.574219 37.414063 21.519531 36.378906 C 18.796875 34.671875 16.46875 32.109375 15 29.253906 Z M 35 29.253906 C 33.542969 32.089844 30.949219 34.542969 28.234375 36.25 C 30.238281 37.363281 32.546875 38 35 38 C 37.355469 38 39.574219 37.414063 41.519531 36.378906 C 38.796875 34.671875 36.46875 32.109375 35 29.253906 Z"/></svg>